<?xml version="1.0" encoding="utf-8"?>
<!-- Generator: Adobe Illustrator 26.0.1, SVG Export Plug-In . SVG Version: 6.00 Build 0)  -->
<svg version="1.1" xmlns="http://www.w3.org/2000/svg" xmlns:xlink="http://www.w3.org/1999/xlink" x="0px" y="0px"
	 viewBox="0 0 504 216" style="enable-background:new 0 0 504 216;" xml:space="preserve">
<style type="text/css">
	.st0{display:none;fill:#FFFFFF;}
	.st1{opacity:0.5;fill:#FFF200;}
	.st2{opacity:0.5;fill:#00AEEF;}
	.st3{opacity:0.5;fill:#00A651;}
	.st4{fill:none;stroke:#00A79D;stroke-width:5.7809;stroke-miterlimit:10;}
	.st5{fill:#00A79D;}
</style>
<g id="Logo">
	<path class="st0" d="M187.7,109.5l9.2-15.9c1.6-2.8,1.6-6.3,0-9.2l-17.3-29.9c-1.6-2.8-4.7-4.6-7.9-4.6h-34.5
		c-3.3,0-6.3,1.7-7.9,4.6l-9.5,16.4h-16.5c-3.3,0-6.3,1.7-7.9,4.6l-17.3,29.9c-1.6,2.8-1.6,6.3,0,9.2l17.3,29.9
		c1.6,2.8,4.7,4.6,7.9,4.6h17.1l9.2,15.9c1.6,2.8,4.7,4.6,7.9,4.6H172c3.3,0,6.3-1.7,7.9-4.6l17.3-29.9c1.6-2.8,1.6-6.3,0-9.2
		L187.7,109.5z"/>
	<path class="st0" d="M187.4,109.7l9.2-15.9c1.6-2.8,1.6-6.3,0-9.2l-17.3-29.9c-1.6-2.8-4.7-4.6-7.9-4.6h-34.5
		c-3.3,0-6.3,1.7-7.9,4.6l-9.5,16.4H103c-3.3,0-6.3,1.7-7.9,4.6l-17.3,29.9c-1.6,2.8-1.6,6.3,0,9.2l17.3,29.9
		c1.6,2.8,4.7,4.6,7.9,4.6H120l9.2,15.9c1.6,2.8,4.7,4.6,7.9,4.6h34.5c3.3,0,6.3-1.7,7.9-4.6l17.3-29.9c1.6-2.8,1.6-6.3,0-9.2
		L187.4,109.7z"/>
	<path class="st1" d="M155.8,28.8h-46.3c-4.4,0-8.4,2.3-10.6,6.1L75.7,75c-2.2,3.8-2.2,8.5,0,12.3l23.2,40.1
		c2.2,3.8,6.3,6.1,10.6,6.1h46.3c4.4,0,8.4-2.3,10.6-6.1l23.2-40.1c2.2-3.8,2.2-8.5,0-12.3l-23.2-40.1
		C164.3,31.1,160.2,28.8,155.8,28.8z"/>
	<path class="st2" d="M156.2,84.4h-46.3c-4.4,0-8.4,2.3-10.6,6.1l-23.2,40.1c-2.2,3.8-2.2,8.5,0,12.3L99.3,183
		c2.2,3.8,6.3,6.1,10.6,6.1h46.3c4.4,0,8.4-2.3,10.6-6.1l23.2-40.1c2.2-3.8,2.2-8.5,0-12.3l-23.2-40.1
		C164.7,86.7,160.6,84.4,156.2,84.4z"/>
	<path class="st3" d="M110.4,56.9H64.1c-4.4,0-8.4,2.3-10.6,6.1l-23.2,40.1c-2.2,3.8-2.2,8.5,0,12.3l23.2,40.1
		c2.2,3.8,6.3,6.1,10.6,6.1h46.3c4.4,0,8.4-2.3,10.6-6.1l23.2-40.1c2.2-3.8,2.2-8.5,0-12.3L121,63C118.8,59.2,114.8,56.9,110.4,56.9
		z"/>
	<path class="st4" d="M179.7,108.3l12.7-21.9c2.3-3.9,2.3-8.7,0-12.7l-23.9-41.3c-2.3-3.9-6.5-6.3-11-6.3h-47.9
		c-4.5,0-8.7,2.4-11,6.3L85.5,55H62.6c-4.5,0-8.7,2.4-11,6.3l-23.9,41.3c-2.3,3.9-2.3,8.7,0,12.7l23.9,41.3c2.3,3.9,6.5,6.3,11,6.3
		h23.7L99,185c2.3,3.9,6.5,6.3,11,6.3h47.9c4.5,0,8.7-2.4,11-6.3l23.9-41.3c2.3-3.9,2.3-8.7,0-12.7L179.7,108.3z"/>
</g>
<g id="Text">
	<g>
		<path class="st5" d="M230.8,106.6h-10.5V51.8h10.5V106.6z"/>
		<path d="M268.8,51.7c2.7,0,5.2,0.5,7.6,1.5c2.4,1,4.4,2.4,6.2,4.2c1.8,1.8,3.1,3.8,4.2,6.2c1,2.4,1.5,4.9,1.5,7.6
			c0,2.7-0.5,5.2-1.4,7.5c-0.9,2.3-2.2,4.3-4,6c-1.8,1.7-4,3.1-6.6,4s-5.8,1.5-9.3,1.5h-12.2v16.4h-10.5V51.7H268.8z M268.8,80.8
			c1.5,0,2.9-0.3,4-0.8c1.1-0.5,2.1-1.2,2.8-2.1c0.7-0.9,1.3-1.9,1.6-3.1c0.3-1.1,0.5-2.3,0.5-3.6c0-1.2-0.2-2.5-0.7-3.7
			c-0.5-1.2-1.1-2.3-2-3.3c-0.9-0.9-1.9-1.7-3.2-2.3c-1.2-0.6-2.7-0.9-4.3-0.9h-12.8v19.8H268.8z"/>
		<path d="M320.8,107.7c-3.9,0-7.6-0.8-11-2.2s-6.5-3.5-9-6.1c-2.6-2.6-4.6-5.6-6.1-9c-1.5-3.4-2.2-7.1-2.2-11.1
			c0-3.9,0.8-7.6,2.2-11.1c1.5-3.5,3.5-6.5,6.1-9.1c2.6-2.6,5.6-4.6,9-6.1s7.1-2.2,11-2.2c3.9,0,7.6,0.8,11.1,2.2s6.5,3.5,9,6.1
			c2.6,2.6,4.6,5.6,6.1,9.1c1.5,3.5,2.2,7.2,2.2,11.1c0,4-0.8,7.7-2.2,11.1c-1.5,3.5-3.5,6.5-6.1,9c-2.6,2.6-5.6,4.6-9,6.1
			S324.8,107.7,320.8,107.7z M320.9,60.5c-2.5,0-4.8,0.5-7,1.5c-2.2,1-4.1,2.4-5.7,4.1c-1.6,1.7-2.9,3.7-3.9,6
			c-0.9,2.3-1.4,4.6-1.4,7.1c0,2.5,0.5,4.9,1.4,7.1s2.2,4.2,3.9,6c1.6,1.7,3.5,3.1,5.7,4.1c2.2,1,4.5,1.5,7,1.5c2.5,0,4.8-0.5,7-1.5
			c2.2-1,4.1-2.4,5.7-4.1c1.6-1.7,2.9-3.7,3.9-6s1.4-4.6,1.4-7.1c0-2.4-0.5-4.8-1.4-7.1c-0.9-2.3-2.2-4.3-3.9-6
			c-1.6-1.7-3.5-3.1-5.7-4.1C325.7,61,323.4,60.5,320.9,60.5z"/>
		<path d="M370.6,106.6h-10.5V51.8h10.5V106.6z"/>
		<path d="M430.7,106.6L394.6,74v32.6h-10.5V51.8h1.1l36.1,33.2V51.8h10.5v54.8H430.7z"/>
		<path d="M481,61h-15.7v45.6h-10.5V61H439v-9.3H481V61z"/>
	</g>
	<g>
		<path d="M219.8,160.7l18-35.1h0.7l18,35.1h-7.3l-2.7-5.5h-16.6l-2.7,5.5H219.8z M233.1,149.3h10l-5-10.6L233.1,149.3z"/>
		<path d="M274.4,160.7h-13.9v-35.1h13.9c5,0,9.1,1.5,12.4,4.4c1.7,1.6,3,3.5,3.9,5.7c0.9,2.2,1.3,4.7,1.3,7.5
			c0,2.8-0.4,5.3-1.3,7.5c-0.9,2.2-2.2,4.1-3.9,5.7c-1.6,1.4-3.4,2.5-5.5,3.3C279.2,160.3,276.9,160.7,274.4,160.7z M267.2,154.8
			h7.2c1.2,0,2.5-0.1,3.8-0.4c1.3-0.3,2.4-0.9,3.5-1.7c1-0.8,1.9-2,2.6-3.5c0.7-1.5,1-3.5,1-5.9s-0.3-4.4-1-5.9
			c-0.7-1.5-1.5-2.7-2.6-3.5c-1.1-0.8-2.2-1.4-3.5-1.7s-2.5-0.4-3.7-0.4h-7.2V154.8z"/>
		<path d="M326.8,125.6l-16.7,35.1h-0.4l-16.7-35.1h7.4l9.5,20.4l9.5-20.4H326.8z"/>
		<path d="M338.6,160.7h-6.7v-35.1h6.7V160.7z"/>
		<path d="M345.8,156.1l3.6-5.4c1.8,1.2,3.6,2.3,5.4,3.1s3.8,1.3,5.9,1.3c1.1,0,2-0.1,2.9-0.4c0.8-0.3,1.5-0.6,2.1-1.1
			c0.6-0.4,1-0.9,1.3-1.5s0.4-1.1,0.4-1.7c0-0.7-0.2-1.3-0.6-1.8s-1-0.9-1.7-1.2c-0.7-0.3-1.6-0.6-2.5-0.8s-2-0.4-3-0.6
			c-0.7-0.1-1.5-0.3-2.4-0.5s-1.9-0.4-2.9-0.7s-2-0.7-2.9-1.2s-1.8-1.1-2.6-1.9c-0.8-0.8-1.4-1.6-1.8-2.7c-0.5-1-0.7-2.3-0.7-3.7
			c0-2,0.4-3.8,1.2-5.1c0.8-1.4,1.9-2.4,3.2-3.2c1.3-0.8,2.7-1.3,4.3-1.7s3.1-0.5,4.6-0.5c1.5,0,2.8,0.1,3.9,0.3
			c1.2,0.2,2.2,0.5,3.2,0.8c1,0.4,2,0.8,2.9,1.4c0.9,0.6,2,1.2,3,2l-3.7,5.3c-1.7-1.2-3.3-2-4.8-2.6c-1.5-0.6-3.2-0.9-4.8-0.9
			c-0.6,0-1.2,0.1-2,0.2c-0.7,0.1-1.4,0.4-2.1,0.7c-0.7,0.3-1.2,0.7-1.6,1.2c-0.4,0.5-0.6,1.1-0.6,1.8c0,0.7,0.3,1.3,0.8,1.8
			c0.5,0.5,1.2,0.9,2,1.2c0.8,0.3,1.7,0.6,2.6,0.8c1,0.2,1.9,0.4,2.8,0.7c0.7,0.2,1.5,0.3,2.4,0.5s1.9,0.4,2.8,0.7
			c1,0.3,1.9,0.7,2.9,1.2c1,0.5,1.8,1.1,2.6,1.8c0.8,0.8,1.4,1.7,1.8,2.8c0.5,1.1,0.7,2.4,0.7,4c0,1.8-0.3,3.4-1,4.8
			c-0.6,1.3-1.6,2.5-2.7,3.3c-1.2,0.9-2.6,1.5-4.2,2c-1.6,0.4-3.4,0.7-5.4,0.7c-1.8,0-3.4-0.1-4.8-0.4c-1.4-0.3-2.7-0.6-3.8-1.1
			s-2.2-1-3.3-1.7C348,157.6,346.9,156.9,345.8,156.1z"/>
		<path d="M396.3,161.4c-2.5,0-4.8-0.5-7.1-1.4s-4.1-2.3-5.8-3.9c-1.6-1.6-3-3.6-3.9-5.8s-1.4-4.6-1.4-7.1c0-2.5,0.5-4.9,1.4-7.1
			c1-2.2,2.3-4.2,3.9-5.8c1.6-1.6,3.6-3,5.8-3.9s4.6-1.4,7.1-1.4c2.5,0,4.9,0.5,7.1,1.4s4.1,2.3,5.8,3.9c1.6,1.6,3,3.6,3.9,5.8
			c1,2.2,1.4,4.6,1.4,7.1c0,2.5-0.5,4.9-1.4,7.1s-2.3,4.1-3.9,5.8s-3.6,3-5.8,3.9S398.8,161.4,396.3,161.4z M396.3,131.2
			c-1.6,0-3.1,0.3-4.5,1c-1.4,0.7-2.6,1.5-3.6,2.6s-1.9,2.4-2.5,3.8c-0.6,1.5-0.9,3-0.9,4.5c0,1.6,0.3,3.1,0.9,4.6
			c0.6,1.4,1.4,2.7,2.5,3.8c1,1.1,2.3,2,3.6,2.6c1.4,0.7,2.9,1,4.5,1c1.6,0,3.1-0.3,4.5-1c1.4-0.7,2.6-1.5,3.6-2.6
			c1-1.1,1.9-2.4,2.5-3.8c0.6-1.4,0.9-3,0.9-4.6c0-1.6-0.3-3.1-0.9-4.5c-0.6-1.5-1.4-2.7-2.5-3.8s-2.3-2-3.6-2.6
			C399.4,131.5,397.9,131.2,396.3,131.2z"/>
		<path d="M427.2,160.7h-6.7v-35.1h16c1.8,0,3.4,0.3,4.9,0.9c1.5,0.6,2.8,1.4,3.8,2.5s1.9,2.4,2.5,3.8s0.9,3.1,0.9,4.9
			c0,2.7-0.7,5-2,7c-1.3,2-3.1,3.4-5.3,4.3c3,3.9,5.9,7.8,8.7,11.8h-8c-1.4-1.8-2.8-3.7-4.1-5.5c-1.3-1.9-2.7-3.7-4-5.7h-6.7V160.7z
			 M427.2,143.6h9.2c0.6,0,1.2-0.1,1.9-0.4c0.7-0.2,1.2-0.6,1.7-1.1c0.5-0.5,0.9-1.1,1.3-1.8c0.3-0.7,0.5-1.6,0.5-2.6
			c0-0.5-0.1-1.1-0.2-1.8c-0.1-0.7-0.4-1.4-0.8-2c-0.4-0.6-0.9-1.2-1.6-1.6s-1.6-0.7-2.8-0.7h-9.2V143.6z"/>
		<path d="M453.6,156.1l3.6-5.4c1.8,1.2,3.6,2.3,5.4,3.1s3.8,1.3,5.9,1.3c1.1,0,2-0.1,2.9-0.4c0.8-0.3,1.5-0.6,2.1-1.1
			c0.6-0.4,1-0.9,1.3-1.5s0.4-1.1,0.4-1.7c0-0.7-0.2-1.3-0.6-1.8s-1-0.9-1.7-1.2c-0.7-0.3-1.6-0.6-2.5-0.8s-2-0.4-3-0.6
			c-0.7-0.1-1.5-0.3-2.4-0.5s-1.9-0.4-2.9-0.7s-2-0.7-2.9-1.2s-1.8-1.1-2.6-1.9c-0.8-0.8-1.4-1.6-1.8-2.7c-0.5-1-0.7-2.3-0.7-3.7
			c0-2,0.4-3.8,1.2-5.1c0.8-1.4,1.9-2.4,3.2-3.2c1.3-0.8,2.7-1.3,4.3-1.7s3.1-0.5,4.6-0.5c1.5,0,2.8,0.1,3.9,0.3
			c1.2,0.2,2.2,0.5,3.2,0.8c1,0.4,2,0.8,2.9,1.4c0.9,0.6,2,1.2,3,2l-3.7,5.3c-1.7-1.2-3.3-2-4.8-2.6c-1.5-0.6-3.2-0.9-4.8-0.9
			c-0.6,0-1.2,0.1-2,0.2c-0.7,0.1-1.4,0.4-2.1,0.7c-0.7,0.3-1.2,0.7-1.6,1.2c-0.4,0.5-0.6,1.1-0.6,1.8c0,0.7,0.3,1.3,0.8,1.8
			c0.5,0.5,1.2,0.9,2,1.2c0.8,0.3,1.7,0.6,2.6,0.8c1,0.2,1.9,0.4,2.8,0.7c0.7,0.2,1.5,0.3,2.4,0.5s1.9,0.4,2.8,0.7
			c1,0.3,1.9,0.7,2.9,1.2c1,0.5,1.8,1.1,2.6,1.8c0.8,0.8,1.4,1.7,1.8,2.8c0.5,1.1,0.7,2.4,0.7,4c0,1.8-0.3,3.4-1,4.8
			c-0.6,1.3-1.6,2.5-2.7,3.3c-1.2,0.9-2.6,1.5-4.2,2c-1.6,0.4-3.4,0.7-5.4,0.7c-1.8,0-3.4-0.1-4.8-0.4c-1.4-0.3-2.7-0.6-3.8-1.1
			s-2.2-1-3.3-1.7C455.8,157.6,454.7,156.9,453.6,156.1z"/>
	</g>
</g>
</svg>
