<?xml version="1.0" encoding="utf-8"?>
<!-- Generator: Adobe Illustrator 26.0.1, SVG Export Plug-In . SVG Version: 6.00 Build 0)  -->
<svg version="1.1" id="Layer_1" xmlns="http://www.w3.org/2000/svg" xmlns:xlink="http://www.w3.org/1999/xlink" x="0px" y="0px"
	 viewBox="0 0 24 24" style="enable-background:new 0 0 24 24;" xml:space="preserve">
<style type="text/css">
	.st0{fill:#231F20;}
</style>
<path class="st0" d="M15.2,5.5c-0.8,0-1.1,0-3.2,0s-2.4,0-3.2,0C6.6,5.6,5.6,6.6,5.5,8.8c0,0.8,0,1.1,0,3.2s0,2.4,0,3.2
	c0.1,2.1,1.1,3.2,3.3,3.3c0.8,0,1.1,0,3.2,0c2.1,0,2.4,0,3.2,0c2.2-0.1,3.2-1.1,3.3-3.3c0-0.8,0-1.1,0-3.2s0-2.4,0-3.2
	C18.4,6.6,17.4,5.6,15.2,5.5z M12,16.1c-2.3,0-4.1-1.8-4.1-4.1S9.7,7.9,12,7.9s4.1,1.8,4.1,4.1S14.3,16.1,12,16.1z M16.3,8.7
	c-0.5,0-1-0.4-1-1s0.4-1,1-1c0.5,0,1,0.4,1,1S16.8,8.7,16.3,8.7z M14.7,12c0,1.5-1.2,2.7-2.7,2.7S9.3,13.5,9.3,12s1.2-2.7,2.7-2.7
	S14.7,10.5,14.7,12z M19,0H5C2.2,0,0,2.2,0,5v14c0,2.8,2.2,5,5,5h14c2.8,0,5-2.2,5-5V5C24,2.2,21.8,0,19,0z M20,15.3
	c-0.1,2.9-1.8,4.5-4.7,4.7c-0.9,0-1.1,0-3.3,0s-2.4,0-3.3,0c-2.9-0.1-4.5-1.7-4.7-4.7c0-0.9,0-1.1,0-3.3c0-2.2,0-2.4,0-3.3
	C4.2,5.8,5.8,4.2,8.7,4C9.6,4,9.8,4,12,4s2.4,0,3.3,0c2.9,0.1,4.5,1.8,4.7,4.7c0,0.9,0,1.1,0,3.3C20,14.2,20,14.4,20,15.3z"/>
</svg>
